<svg xmlns="http://www.w3.org/2000/svg" width="220" height="220" viewBox="0 0 220 220" fill="none">
  <defs>
    <linearGradient id="g" x1="40" y1="30" x2="190" y2="190" gradientUnits="userSpaceOnUse">
      <stop stop-color="#7FE9FF"/>
      <stop offset="0.55" stop-color="#5CC8FF"/>
      <stop offset="1" stop-color="#2C7DFF"/>
    </linearGradient>
    <filter id="s" x="-20%" y="-20%" width="140%" height="140%">
      <feDropShadow dx="0" dy="10" stdDeviation="12" flood-color="#000" flood-opacity="0.35"/>
    </filter>
  </defs>

  <rect x="30" y="30" width="160" height="160" rx="34" fill="rgba(255,255,255,0.08)" stroke="rgba(255,255,255,0.18)"/>
  <g filter="url(#s)">
    <path d="M110 52c26 0 47 21 47 47v16c0 26-21 47-47 47s-47-21-47-47V99c0-26 21-47 47-47Z" fill="url(#g)"/>
    <path d="M92 118h12v-12h12v12h12v12h-12v12h-12v-12H92v-12Z" fill="#0A1C2B" opacity="0.92"/>
    <path d="M76 92c9-18 28-26 34-28" stroke="rgba(255,255,255,0.65)" stroke-width="6" stroke-linecap="round"/>
    <path d="M144 92c-9-18-28-26-34-28" stroke="rgba(255,255,255,0.65)" stroke-width="6" stroke-linecap="round"/>
  </g>

  <circle cx="62" cy="158" r="4" fill="rgba(255,255,255,0.7)"/>
  <circle cx="82" cy="176" r="3" fill="rgba(255,255,255,0.55)"/>
  <circle cx="158" cy="170" r="3" fill="rgba(255,255,255,0.55)"/>
  <circle cx="168" cy="148" r="4" fill="rgba(255,255,255,0.7)"/>
</svg>
